<svg width="66" height="80" viewBox="0 0 66 80" fill="none" xmlns="http://www.w3.org/2000/svg">
<path d="M0 33C0 14.7746 14.7746 0 33 0C51.2254 0 66 14.7746 66 33V80H0V33Z" fill="#725746"/>
<path d="M35 19C35 16.2386 37.2386 14 40 14C42.7614 14 45 16.2386 45 19C45 21.7614 42.7614 24 40 24C37.2386 24 35 21.7614 35 19Z" fill="black"/>
<path d="M39 20.5C39 19.1193 40.1193 18 41.5 18C42.8807 18 44 19.1193 44 20.5C44 21.8807 42.8807 23 41.5 23C40.1193 23 39 21.8807 39 20.5Z" fill="white"/>
<path d="M19 19C19 16.2386 21.2386 14 24 14C26.7614 14 29 16.2386 29 19C29 21.7614 26.7614 24 24 24C21.2386 24 19 21.7614 19 19Z" fill="black"/>
<path d="M23 20.5C23 19.1193 24.1193 18 25.5 18C26.8807 18 28 19.1193 28 20.5C28 21.8807 26.8807 23 25.5 23C24.1193 23 23 21.8807 23 20.5Z" fill="white"/>
<path d="M32.5781 32.5903C32.2318 32.8358 31.7682 32.8358 31.4219 32.5903L25.0366 28.0659C24.2412 27.5024 24.6399 26.25 25.6147 26.25L38.3853 26.25C39.3601 26.25 39.7588 27.5024 38.9634 28.0659L32.5781 32.5903Z" fill="#392B23"/>
<path d="M26 36C26 37.0506 26.1552 38.0909 26.4567 39.0615C26.7583 40.0321 27.2002 40.914 27.7574 41.6569C28.3145 42.3997 28.9759 42.989 29.7039 43.391C30.4319 43.7931 31.2121 44 32 44C32.7879 44 33.5681 43.7931 34.2961 43.391C35.0241 42.989 35.6855 42.3997 36.2426 41.6569C36.7998 40.914 37.2417 40.0321 37.5433 39.0615C37.8448 38.0909 38 37.0506 38 36H32H26Z" fill="#EA556E"/>
<path d="M28 36H32V44C32 44.5523 31.5523 45 31 45H29C28.4477 45 28 44.5523 28 44V36Z" fill="white"/>
<path d="M32.5 36H36.5V44C36.5 44.5523 36.0523 45 35.5 45H33.5C32.9477 45 32.5 44.5523 32.5 44V36Z" fill="white"/>
</svg>
